<?xml version="1.0" encoding="utf-8"?>
<!-- Generator: Adobe Illustrator 16.0.0, SVG Export Plug-In . SVG Version: 6.00 Build 0)  -->
<!DOCTYPE svg PUBLIC "-//W3C//DTD SVG 1.1//EN" "http://www.w3.org/Graphics/SVG/1.1/DTD/svg11.dtd">
<svg version="1.1" id="Layer_1" xmlns="http://www.w3.org/2000/svg" xmlns:xlink="http://www.w3.org/1999/xlink" x="0px" y="0px"
	 width="24px" height="24px" viewBox="0 0 24 24" enable-background="new 0 0 24 24" xml:space="preserve">
<path d="M1,7.77h5.077V23H1V7.77z M8.615,7.77h5.077v1.856c1.613-0.965,3.523-1.856,5.077-1.856c3.385,0,4.231,3.384,4.231,3.384V23
	h-5.077V12.847c-0.657-1.969-2.33-1.902-4.231-0.196V23H8.615V7.77z M3.539,1C4.94,1,6.077,2.137,6.077,3.538
	c0,1.402-1.136,2.539-2.538,2.539S1,4.94,1,3.538C1,2.137,2.137,1,3.539,1z"/>
</svg>
