<?xml version="1.0" encoding="utf-8"?>
<!-- Generator: Adobe Illustrator 16.0.0, SVG Export Plug-In . SVG Version: 6.00 Build 0)  -->
<!DOCTYPE svg PUBLIC "-//W3C//DTD SVG 1.1//EN" "http://www.w3.org/Graphics/SVG/1.1/DTD/svg11.dtd">
<svg version="1.1" id="Layer_1" xmlns="http://www.w3.org/2000/svg" xmlns:xlink="http://www.w3.org/1999/xlink" x="0px" y="0px"
	 width="24px" height="24px" viewBox="0 0 24 24" enable-background="new 0 0 24 24" xml:space="preserve">
<path id="Behance_3_" d="M21.675,6.644h-6.017V5.153h6.017V6.644z M11.659,12.771c0.389,0.604,0.577,1.334,0.577,2.185
	c0,0.888-0.215,1.683-0.659,2.386c-0.282,0.467-0.634,0.852-1.056,1.174c-0.479,0.367-1.042,0.612-1.688,0.748
	c-0.651,0.139-1.349,0.207-2.108,0.207H0V4.53h7.21c1.823,0.029,3.106,0.557,3.867,1.592c0.457,0.633,0.687,1.396,0.687,2.28
	c0,0.913-0.231,1.645-0.69,2.203c-0.257,0.308-0.64,0.596-1.138,0.847C10.697,11.729,11.271,12.164,11.659,12.771z M3.445,10.417
	h3.156c0.652,0,1.178-0.122,1.581-0.368c0.406-0.245,0.606-0.688,0.606-1.313c0-0.699-0.269-1.158-0.805-1.38
	C7.524,7.204,6.937,7.122,6.222,7.122H3.445V10.417z M9.093,14.743c0-0.777-0.316-1.313-0.949-1.596
	c-0.354-0.166-0.855-0.252-1.496-0.256H3.445v3.98h3.154c0.647,0,1.15-0.09,1.512-0.26C8.765,16.283,9.093,15.658,9.093,14.743z
	 M23.904,12.313c0.074,0.486,0.102,1.203,0.095,2.125h-7.785c0.034,1.078,0.408,1.826,1.112,2.252
	c0.422,0.274,0.938,0.412,1.543,0.412c0.635,0,1.15-0.164,1.551-0.489c0.227-0.183,0.414-0.421,0.582-0.744h2.854
	c-0.084,0.635-0.42,1.284-1.043,1.94c-0.959,1.035-2.299,1.554-4.019,1.554c-1.426,0-2.687-0.433-3.771-1.314
	c-1.082-0.873-1.637-2.302-1.637-4.274c0-1.86,0.49-3.287,1.475-4.273c0.984-0.992,2.254-1.483,3.824-1.483
	c0.934,0,1.774,0.168,2.521,0.5c0.75,0.336,1.362,0.864,1.839,1.583C23.486,10.743,23.771,11.479,23.904,12.313z M21.094,12.59
	c-0.05-0.743-0.303-1.305-0.748-1.685c-0.445-0.387-1.005-0.583-1.66-0.583c-0.713,0-1.272,0.208-1.668,0.61
	c-0.396,0.408-0.64,0.959-0.746,1.656L21.094,12.59L21.094,12.59z"/>
</svg>
