<svg id="Layer_5" data-name="Layer 5" xmlns="http://www.w3.org/2000/svg" viewBox="0 0 33.1 33.1"><title>pinterest-icon</title><path d="M20.12,3.71a16.55,16.55,0,0,0-6,32,15.91,15.91,0,0,1,.06-4.75c0.3-1.29,1.94-8.23,1.94-8.23a6,6,0,0,1-.5-2.46c0-2.3,1.33-4,3-4a2.08,2.08,0,0,1,2.09,2.33c0,1.42-.9,3.54-1.37,5.51a2.4,2.4,0,0,0,2.45,3c2.94,0,5.2-3.1,5.2-7.58A6.53,6.53,0,0,0,20,12.74a7.16,7.16,0,0,0-7.47,7.18,6.43,6.43,0,0,0,1.23,3.78,0.5,0.5,0,0,1,.12.47l-0.46,1.88c-0.07.3-.24,0.37-0.55,0.22-2.07-1-3.36-4-3.36-6.41,0-5.22,3.79-10,10.94-10,5.74,0,10.2,4.09,10.2,9.56,0,5.7-3.6,10.29-8.59,10.29a4.43,4.43,0,0,1-3.79-1.9l-1,3.93a18.53,18.53,0,0,1-2.06,4.34A16.55,16.55,0,1,0,20.12,3.71Z" transform="translate(-3.57 -3.71)"/></svg>