<?xml version="1.0" encoding="utf-8"?>
<!-- Generator: Adobe Illustrator 16.0.0, SVG Export Plug-In . SVG Version: 6.00 Build 0)  -->
<!DOCTYPE svg PUBLIC "-//W3C//DTD SVG 1.1//EN" "http://www.w3.org/Graphics/SVG/1.1/DTD/svg11.dtd">
<svg version="1.1" id="Layer_1" xmlns="http://www.w3.org/2000/svg" xmlns:xlink="http://www.w3.org/1999/xlink" x="0px" y="0px"
	 width="512px" height="512px" viewBox="0 0 512 512" enable-background="new 0 0 512 512" xml:space="preserve">
<g>
	<path fill-rule="evenodd" clip-rule="evenodd" d="M507.133,484.146l-132.26-130.062c34.677-37.615,55.916-87.364,55.916-142.052
		c0-117.145-96.416-211.999-215.363-211.999C96.437,0.034,0,94.888,0,212.033C0,329.084,96.437,423.99,215.426,423.99
		c51.354,0,98.541-17.823,135.593-47.354l132.614,130.541c6.5,6.385,17,6.385,23.5,0C513.622,500.875,513.622,490.5,507.133,484.146
		L507.133,484.146z M215.426,391.386c-100.718,0-182.301-80.354-182.301-179.354c0-99.145,81.583-179.405,182.301-179.405
		c100.697,0,182.208,80.26,182.208,179.405C397.633,311.032,316.123,391.386,215.426,391.386L215.426,391.386z M215.426,391.386"/>
</g>
</svg>
