<?xml version="1.0" encoding="utf-8"?>
<!-- Generator: Adobe Illustrator 16.0.0, SVG Export Plug-In . SVG Version: 6.00 Build 0)  -->
<!DOCTYPE svg PUBLIC "-//W3C//DTD SVG 1.1//EN" "http://www.w3.org/Graphics/SVG/1.1/DTD/svg11.dtd">
<svg version="1.1" id="Layer_1" xmlns="http://www.w3.org/2000/svg" xmlns:xlink="http://www.w3.org/1999/xlink" x="0px" y="0px"
	 width="24px" height="24px" viewBox="3 3 24 24" enable-background="new 3 3 24 24" xml:space="preserve">
<path id="Facebook_3_" d="M11.82,7.649c0,0.605,0,3.303,0,3.303H9.399v4.042h2.422V27h4.971V14.995h3.338c0,0,0.31-1.939,0.46-4.054
	c-0.436,0-3.783,0-3.783,0s0-2.352,0-2.763c0-0.415,0.544-0.972,1.082-0.972c0.536,0,1.664,0,2.714,0c0-0.549,0-2.451,0-4.206
	c-1.4,0-2.984,0-3.686,0C11.696,3,11.82,7.047,11.82,7.649z"/>
</svg>
