<?xml version="1.0" encoding="utf-8"?>
<!-- Generator: Adobe Illustrator 16.0.0, SVG Export Plug-In . SVG Version: 6.00 Build 0)  -->
<!DOCTYPE svg PUBLIC "-//W3C//DTD SVG 1.1 Tiny//EN" "http://www.w3.org/Graphics/SVG/1.1/DTD/svg11-tiny.dtd">
<svg version="1.1" baseProfile="tiny" id="Layer_1" xmlns="http://www.w3.org/2000/svg" xmlns:xlink="http://www.w3.org/1999/xlink"
	 x="0px" y="0px" width="24px" height="24px" viewBox="0 0 24 24" xml:space="preserve">
<path d="M11.999,5.444V7.41c0,0.242,0.134,0.465,0.347,0.579c0.097,0.05,0.204,0.078,0.31,0.078c0.127,0,0.254-0.036,0.363-0.11
	l3.935-2.624c0.183-0.121,0.293-0.326,0.293-0.546c0-0.218-0.11-0.423-0.293-0.545L13.019,1.62c-0.2-0.135-0.461-0.148-0.673-0.033
	c-0.213,0.114-0.347,0.336-0.347,0.579v1.967c-4.338,0-7.868,3.529-7.868,7.869c0,0.361,0.293,0.654,0.655,0.654
	c0.361,0,0.655-0.293,0.655-0.654C5.441,8.384,8.383,5.444,11.999,5.444z M13.311,3.39l2.097,1.397l-2.097,1.397V3.39z
	 M19.213,11.345c-0.362,0-0.656,0.293-0.656,0.657c0,3.615-2.941,6.557-6.558,6.557v-1.97c0-0.24-0.134-0.461-0.347-0.576
	c-0.213-0.114-0.472-0.104-0.672,0.033l-3.935,2.621c-0.184,0.123-0.293,0.326-0.293,0.547c0,0.219,0.109,0.424,0.293,0.545
	l3.935,2.624c0.109,0.072,0.235,0.109,0.363,0.109c0.105,0,0.212-0.024,0.309-0.077c0.213-0.114,0.347-0.336,0.347-0.578V19.87
	c4.338,0,7.87-3.529,7.87-7.869C19.869,11.638,19.574,11.345,19.213,11.345z M10.688,20.611l-2.097-1.397l2.097-1.396V20.611z"/>
</svg>
