<?xml version="1.0" encoding="utf-8"?>
<!-- Generator: Adobe Illustrator 16.0.0, SVG Export Plug-In . SVG Version: 6.00 Build 0)  -->
<!DOCTYPE svg PUBLIC "-//W3C//DTD SVG 1.1//EN" "http://www.w3.org/Graphics/SVG/1.1/DTD/svg11.dtd">
<svg version="1.1" id="Layer_1" xmlns="http://www.w3.org/2000/svg" xmlns:xlink="http://www.w3.org/1999/xlink" x="0px" y="0px"
	 width="24px" height="24px" viewBox="0 0 24 24" enable-background="new 0 0 24 24" xml:space="preserve">
<path fill-rule="evenodd" clip-rule="evenodd" d="M8.314,21.755c-0.497,0-0.993,0-1.49,0c-0.079-0.016-0.159-0.009-0.238-0.01
	c-0.582-0.008-1.153-0.1-1.723-0.207c-0.64-0.121-1.267-0.292-1.883-0.503c-0.413-0.143-0.817-0.306-1.215-0.485
	c-0.579-0.261-1.136-0.563-1.675-0.899c-0.017-0.011-0.034-0.021-0.05-0.033c-0.021-0.016-0.049-0.032-0.039-0.061
	c0.011-0.033,0.046-0.028,0.073-0.024c0.038,0.005,0.076,0.005,0.114,0.01c0.408,0.046,0.818,0.052,1.228,0.046
	c0.276-0.004,0.551-0.027,0.825-0.056c0.465-0.048,0.923-0.134,1.375-0.248c0.361-0.091,0.716-0.202,1.064-0.336
	c0.35-0.134,0.692-0.284,1.024-0.457C6.158,18.256,6.59,17.99,7,17.688c0.065-0.048,0.134-0.093,0.206-0.157
	c-0.088-0.001-0.161-0.006-0.234-0.012c-0.337-0.024-0.666-0.088-0.99-0.182c-0.289-0.083-0.568-0.195-0.836-0.331
	c-0.36-0.183-0.693-0.407-0.999-0.671c-0.546-0.471-0.969-1.034-1.274-1.688c-0.071-0.152-0.132-0.309-0.188-0.468
	c-0.032-0.094-0.006-0.124,0.091-0.108c0.307,0.049,0.615,0.082,0.925,0.073c0.343-0.01,0.682-0.048,1.016-0.127
	c0.033-0.008,0.066-0.014,0.096-0.017c-0.024,0.007-0.051-0.004-0.078-0.011c-0.577-0.135-1.111-0.371-1.604-0.698
	c-0.332-0.22-0.631-0.479-0.9-0.771c-0.35-0.382-0.635-0.809-0.852-1.279c-0.213-0.463-0.354-0.947-0.414-1.454
	c-0.021-0.186-0.039-0.37-0.034-0.557c0-0.012,0-0.024,0-0.036c0.003-0.099,0.034-0.119,0.118-0.07
	c0.139,0.079,0.287,0.142,0.434,0.203C1.895,9.5,2.321,9.607,2.76,9.662c0.103,0.013,0.206,0.024,0.321,0.027
	c-0.069-0.063-0.14-0.106-0.205-0.157C2.359,9.128,1.938,8.641,1.614,8.07C1.396,7.688,1.229,7.283,1.122,6.855
	C1.06,6.606,1.016,6.354,0.992,6.099C0.97,5.871,0.962,5.644,0.972,5.416c0.018-0.417,0.085-0.827,0.207-1.228
	C1.271,3.883,1.393,3.59,1.54,3.307c0.023-0.044,0.048-0.088,0.074-0.131c0.029-0.05,0.068-0.053,0.105-0.008
	c0.148,0.181,0.303,0.356,0.458,0.531c0.048,0.054,0.097,0.106,0.146,0.158c0.103,0.109,0.205,0.22,0.312,0.324
	c0.292,0.285,0.59,0.563,0.903,0.826C3.967,5.366,4.414,5.7,4.881,6.007c0.354,0.233,0.72,0.447,1.095,0.647
	c0.435,0.232,0.881,0.44,1.338,0.624c0.5,0.201,1.01,0.373,1.53,0.515c0.483,0.131,0.972,0.238,1.466,0.316
	c0.267,0.043,0.534,0.078,0.803,0.104c0.197,0.019,0.394,0.038,0.592,0.046c0.077,0.002,0.08-0.004,0.065-0.078
	c-0.057-0.282-0.091-0.567-0.098-0.856c-0.004-0.141,0.001-0.279,0.005-0.419c0.007-0.257,0.045-0.51,0.097-0.761
	c0.086-0.414,0.226-0.81,0.415-1.187c0.19-0.379,0.425-0.729,0.706-1.047c0.384-0.436,0.825-0.796,1.332-1.077
	c0.438-0.243,0.902-0.412,1.391-0.518c0.229-0.049,0.461-0.062,0.694-0.066c0.021-0.001,0.044,0.006,0.064-0.006
	c0.164,0,0.328,0,0.492,0c0.073,0.015,0.147,0.009,0.221,0.01c0.33,0.004,0.648,0.075,0.963,0.169
	c0.302,0.089,0.593,0.207,0.872,0.354c0.306,0.161,0.593,0.349,0.858,0.57c0.139,0.115,0.273,0.233,0.398,0.363
	c0.039,0.041,0.077,0.055,0.133,0.043c0.274-0.06,0.546-0.126,0.814-0.207c0.368-0.11,0.729-0.24,1.083-0.393
	c0.309-0.134,0.61-0.282,0.904-0.447c0.052-0.029,0.105-0.057,0.156-0.088c0.023-0.015,0.048-0.025,0.072-0.008
	c0.028,0.021,0.021,0.05,0.013,0.077c-0.045,0.15-0.105,0.294-0.169,0.437c-0.152,0.346-0.347,0.667-0.574,0.969
	c-0.099,0.131-0.207,0.254-0.317,0.376c-0.275,0.304-0.591,0.561-0.932,0.788c-0.019,0.012-0.037,0.024-0.057,0.034
	c-0.013,0.006-0.026,0.009-0.041,0.009c0.251-0.047,0.504-0.081,0.754-0.133c0.611-0.127,1.205-0.31,1.782-0.548
	c0.046-0.019,0.091-0.043,0.139-0.056c0.05-0.013,0.068,0.008,0.054,0.057c-0.017,0.053-0.053,0.094-0.083,0.138
	c-0.202,0.289-0.421,0.564-0.651,0.831c-0.225,0.261-0.468,0.505-0.718,0.742c-0.254,0.24-0.523,0.464-0.804,0.675
	c-0.168,0.127-0.141,0.069-0.146,0.293c-0.003,0.131,0.013,0.26,0.014,0.39c0.002,0.202-0.007,0.404-0.016,0.606
	c-0.019,0.421-0.057,0.841-0.114,1.259c-0.069,0.506-0.166,1.007-0.287,1.502c-0.104,0.421-0.225,0.835-0.364,1.244
	c-0.16,0.466-0.345,0.922-0.549,1.37c-0.354,0.778-0.777,1.517-1.26,2.222c-0.236,0.345-0.489,0.678-0.758,0.999
	c-0.177,0.212-0.36,0.418-0.547,0.62c-0.192,0.208-0.393,0.407-0.596,0.602c-0.254,0.244-0.521,0.474-0.795,0.695
	c-0.369,0.299-0.753,0.575-1.151,0.833c-0.328,0.212-0.667,0.405-1.012,0.589c-0.409,0.217-0.83,0.407-1.259,0.579
	c-0.499,0.199-1.008,0.365-1.527,0.503c-0.49,0.13-0.985,0.232-1.486,0.31c-0.298,0.046-0.598,0.087-0.899,0.106
	c-0.202,0.014-0.405,0.021-0.608,0.021C8.357,21.749,8.335,21.742,8.314,21.755z"/>
</svg>
