<svg xmlns="http://www.w3.org/2000/svg" width="24" height="24" viewBox="0 0 24 24"><path d="M21.675 6.644h-6.017v-1.49h6.017v1.49zM11.66 12.77c.388.605.576 1.335.576 2.186 0 .888-.215 1.683-.66 2.386a4.17 4.17 0 0 1-1.055 1.174c-.478.367-1.04.612-1.687.748-.65.14-1.35.207-2.108.207H0V4.53h7.21c1.823.03 3.106.557 3.867 1.592.457.633.687 1.396.687 2.28 0 .913-.23 1.645-.69 2.203-.257.308-.64.596-1.138.847.76.277 1.335.712 1.723 1.32zm-8.215-2.353H6.6c.653 0 1.18-.122 1.582-.368.406-.246.606-.69.606-1.314 0-.7-.27-1.158-.805-1.38-.46-.152-1.046-.234-1.76-.234H3.444v3.295zm5.648 4.326c0-.777-.316-1.313-.95-1.596-.353-.166-.854-.252-1.495-.256H3.445v3.98H6.6c.646 0 1.15-.09 1.51-.26.655-.327.983-.952.983-1.867zm14.81-2.43c.075.486.103 1.203.096 2.125h-7.786c.034 1.078.408 1.826 1.112 2.252.422.274.938.412 1.543.412.634 0 1.15-.164 1.55-.49.227-.182.414-.42.582-.743h2.854c-.084.634-.42 1.283-1.043 1.94-.96 1.034-2.3 1.553-4.02 1.553-1.425 0-2.686-.433-3.77-1.314-1.082-.874-1.637-2.303-1.637-4.275 0-1.86.49-3.287 1.475-4.273.985-.992 2.255-1.483 3.825-1.483.934 0 1.774.167 2.52.5.75.335 1.363.863 1.84 1.582.44.64.726 1.377.86 2.21zm-2.81.277c-.05-.743-.302-1.305-.747-1.685-.445-.387-1.005-.583-1.66-.583-.713 0-1.272.208-1.668.61-.396.408-.64.96-.746 1.656l4.822.002z"/></svg>